<svg width="244" height="75" viewBox="0 0 244 75" fill="none" xmlns="http://www.w3.org/2000/svg">
<path d="M20.9772 65.7642H26.1953L16.7031 47.4089H10.3312L0.865234 65.7642H6.05713L8.02375 61.8572H19.0106L20.9772 65.7642ZM9.78059 58.3434L13.5303 50.8965L17.2538 58.3434H9.78059ZM33.3545 61.8049V47.4089H28.6345V65.7642H47.5143V61.8049H33.3545ZM66.5227 47.4089H43.9722V51.3686H52.8875V65.7642H57.6075V51.3686H66.5227V47.4089ZM88.7898 51.1585V47.4089H69.3855V65.7642H88.7898V62.0146H74.1056V58.2911H88.7898V54.882H74.1056V51.1585H88.7898ZM113.272 54.1478C113.272 50.0573 110.414 47.4089 106.245 47.4089H91.8224V65.7642H96.5424V60.8606H104.147L107.11 65.7642H112.669L109.286 60.31C111.751 59.34 113.272 57.1371 113.272 54.1478ZM96.5424 51.3686H104.933C106.349 51.3686 108.552 51.3686 108.552 54.1478C108.552 56.9013 106.349 56.9013 104.933 56.9013H96.5424V51.3686ZM135.061 47.4089V61.2015L122.527 47.4089H116.129V65.7642H120.849V51.9977L133.356 65.7642H139.781V47.4089H135.061ZM162.333 65.7642H167.552L158.059 47.4089H151.687L142.221 65.7642H147.413L149.38 61.8572H160.367L162.333 65.7642ZM151.137 58.3434L154.886 50.8965L158.61 58.3434H151.137ZM187.362 47.4089H164.812V51.3686H173.727V65.7642H178.447V51.3686H187.362V47.4089ZM194.945 47.4089H190.226V65.7642H194.945V47.4089ZM217.504 47.4089L210.136 62.2766L202.768 47.4089H197.471L206.911 65.7642H213.361L222.801 47.4089H217.504ZM237.536 65.7642H242.754L233.262 47.4089H226.89L217.424 65.7642H222.616L224.583 61.8572H235.57L237.536 65.7642ZM226.34 58.3434L230.089 50.8965L233.813 58.3434H226.34Z" fill="#EFEFEF"/>
<path d="M124.207 4.47686V1.49352L121.624 0L119.04 1.49352V4.47686L121.624 5.97037L124.207 4.47686Z" fill="#EFEFEF"/>
<path d="M130.39 8.04644V5.06313L127.806 3.56958L125.223 5.06313V8.04644L127.806 9.53995L130.39 8.04644Z" fill="#EFEFEF"/>
<path d="M136.461 11.5523V8.56527L133.878 7.0755L131.29 8.56527V11.5523L133.878 13.0459L136.461 11.5523Z" fill="#EFEFEF"/>
<path d="M136.461 18.6241V15.6408L133.878 14.1473L131.29 15.6408V18.6241L133.878 20.1176L136.461 18.6241Z" fill="#EFEFEF"/>
<path d="M129.778 14.9015V12.6239L127.806 11.4888L125.835 12.6239V14.9015L127.806 16.0404L129.778 14.9015Z" fill="#EFEFEF"/>
<path d="M129.778 21.9734V19.6995L127.806 18.5607L125.835 19.6995V21.9734L127.806 23.1123L129.778 21.9734Z" fill="#EFEFEF"/>
<path d="M116.362 14.6553V12.8705L114.816 11.9781L113.271 12.8705V14.6553L114.816 15.5514L116.362 14.6553Z" fill="#EFEFEF"/>
<path d="M116.362 21.7308V19.9423L114.816 19.0499L113.271 19.9423V21.7308L114.816 22.6232L116.362 21.7308Z" fill="#EFEFEF"/>
<path d="M109.369 17.8812V16.3877L108.077 15.6409L106.785 16.3877V17.8812L108.077 18.628L109.369 17.8812Z" fill="#EFEFEF"/>
<path d="M136.461 25.6998V22.7165L133.878 21.223L131.29 22.7165V25.6998L133.878 27.1933L136.461 25.6998Z" fill="#EFEFEF"/>
<path d="M123.823 11.28V8.84179L121.709 7.62085L119.6 8.84179V11.28L121.709 12.4972L123.823 11.28Z" fill="#EFEFEF"/>
<path d="M123.823 25.4271V22.9889L121.709 21.7679L119.6 22.9889V25.4271L121.709 26.6443L123.823 25.4271Z" fill="#EFEFEF"/>
<path d="M123.484 18.1575V16.1114L121.71 15.0883L119.937 16.1114V18.1575L121.71 19.1806L123.484 18.1575Z" fill="#EFEFEF"/>
<path d="M130.39 29.2061V26.219L127.806 24.7255L125.223 26.219V29.2061L127.806 30.6959L130.39 29.2061Z" fill="#EFEFEF"/>
<path d="M116.938 7.60213V5.15274L114.817 3.92804L112.696 5.15274V7.60213L114.817 8.82681L116.938 7.60213Z" fill="#EFEFEF"/>
<path d="M109.182 9.67038V8.28515L107.984 7.59436L106.785 8.28515V9.67038L107.984 10.3611L109.182 9.67038Z" fill="#EFEFEF"/>
<path d="M124.207 32.7753V29.7883L121.624 28.2947L119.04 29.7883V32.7753L121.624 34.2651L124.207 32.7753Z" fill="#EFEFEF"/>
<path d="M116.938 29.1125V26.6632L114.817 25.4385L112.696 26.6632V29.1125L114.817 30.3372L116.938 29.1125Z" fill="#EFEFEF"/>
<path d="M110.157 25.9499V24.0046L108.473 23.0301L106.785 24.0046V25.9499L108.473 26.9245L110.157 25.9499Z" fill="#EFEFEF"/>
</svg>
