<svg width="18" height="18" viewBox="0 0 18 18" xmlns="http://www.w3.org/2000/svg">
<path d="M13.1276 0H4.87244C2.18573 0 0 2.18573 0 4.87244V13.1277C0 15.8143 2.18573 18 4.87244 18H13.1277C15.8143 18 18 15.8143 18 13.1277V4.87244C18 2.18573 15.8143 0 13.1276 0ZM16.9448 13.1277C16.9448 15.2324 15.2324 16.9448 13.1276 16.9448H4.87244C2.76759 16.9448 1.05524 15.2324 1.05524 13.1277V4.87244C1.05524 2.76759 2.76759 1.05524 4.87244 1.05524H13.1277C15.2324 1.05524 16.9448 2.76759 16.9448 4.87244V13.1277Z"/>
<path d="M8.99998 4.07836C6.28608 4.07836 4.07824 6.2862 4.07824 9.0001C4.07824 11.714 6.28608 13.9218 8.99998 13.9218C11.7139 13.9218 13.9217 11.714 13.9217 9.0001C13.9217 6.2862 11.7139 4.07836 8.99998 4.07836ZM8.99998 12.8666C6.86809 12.8666 5.13348 11.1321 5.13348 9.0001C5.13348 6.8682 6.86809 5.1336 8.99998 5.1336C11.132 5.1336 12.8665 6.8682 12.8665 9.0001C12.8665 11.1321 11.132 12.8666 8.99998 12.8666Z"/>
<path d="M14.0395 2.33022C13.2375 2.33022 12.5851 2.98267 12.5851 3.78454C12.5851 4.58654 13.2375 5.23899 14.0395 5.23899C14.8415 5.23899 15.4939 4.58654 15.4939 3.78454C15.4939 2.98253 14.8415 2.33022 14.0395 2.33022ZM14.0395 4.18361C13.8195 4.18361 13.6404 4.00454 13.6404 3.78454C13.6404 3.5644 13.8195 3.38546 14.0395 3.38546C14.2596 3.38546 14.4387 3.5644 14.4387 3.78454C14.4387 4.00454 14.2596 4.18361 14.0395 4.18361Z"/>
</svg>
