<svg width="26" height="16" viewBox="0 0 26 16" xmlns="http://www.w3.org/2000/svg">
<path d="M12.9547 16C16.6581 16 15.3376 13.6555 15.6235 12.9813C15.6192 12.4779 15.6149 11.9936 15.632 11.6992C15.8667 11.7653 16.4203 12.0459 17.5637 13.1573C19.3291 14.9387 19.7803 16 21.2064 16H23.8315C24.6635 16 25.0965 15.6555 25.3131 15.3664C25.5221 15.0869 25.7269 14.5963 25.5029 13.8325C24.9173 11.9936 21.5019 8.81813 21.2896 8.4832C21.3216 8.42133 21.3728 8.3392 21.3995 8.29653H21.3973C22.0715 7.40587 24.6443 3.55093 25.0229 2.00853C25.024 2.0064 25.0251 2.0032 25.0251 2C25.2299 1.296 25.0421 0.839467 24.848 0.581333C24.5557 0.1952 24.0907 0 23.4624 0H20.8373C19.9584 0 19.2917 0.442667 18.9547 1.25013C18.3904 2.6848 16.8053 5.6352 15.6171 6.67947C15.5808 5.2 15.6053 4.0704 15.6245 3.23093C15.6629 1.5936 15.7867 0 14.0875 0H9.9616C8.89707 0 7.8784 1.16267 8.98133 2.54293C9.9456 3.75253 9.328 4.42667 9.536 7.7824C8.72533 6.91307 7.2832 4.56533 6.26347 1.5648C5.9776 0.753067 5.54453 0.00106659 4.32533 0.00106659H1.70027C0.635733 0.00106659 0 0.581333 0 1.55307C0 3.73547 4.83093 16 12.9547 16ZM4.32533 1.60107C4.5568 1.60107 4.58027 1.60107 4.752 2.08853C5.79627 5.16373 8.13867 9.71413 9.8496 9.71413C11.1349 9.71413 11.1349 8.3968 11.1349 7.9008L11.1339 3.952C11.0635 2.64533 10.5877 1.99467 10.2752 1.6L14.0171 1.60427C14.0192 1.6224 13.9957 5.97227 14.0277 7.02613C14.0277 8.52267 15.216 9.38027 17.0709 7.50293C19.0283 5.29387 20.3819 1.99147 20.4363 1.85707C20.5163 1.66507 20.5856 1.6 20.8373 1.6H23.4624H23.4731C23.472 1.6032 23.472 1.6064 23.4709 1.6096C23.2309 2.7296 20.8619 6.29867 20.0693 7.40693C20.0565 7.424 20.0448 7.44213 20.0331 7.46027C19.6843 8.02987 19.4005 8.6592 20.0811 9.54453H20.0821C20.144 9.6192 20.3051 9.79413 20.5397 10.0373C21.2693 10.7904 23.7717 13.3653 23.9936 14.3893C23.8464 14.4128 23.6864 14.3957 21.2064 14.4011C20.6784 14.4011 20.2656 13.6117 18.6901 12.0224C17.2736 10.6443 16.3541 10.0811 15.5168 10.0811C13.8912 10.0811 14.0096 11.4005 14.0245 12.9963C14.0299 14.7264 14.0192 14.1792 14.0309 14.288C13.936 14.3253 13.664 14.4 12.9547 14.4C6.18667 14.4 1.7792 3.6576 1.6096 1.60427C1.66827 1.59893 2.47573 1.60213 4.32533 1.60107Z"/>
</svg>
