<svg width="24" height="18" viewBox="0 0 24 18" xmlns="http://www.w3.org/2000/svg">
<path d="M15.5405 7.93669L10.2902 5.06398C9.98833 4.8988 9.63151 4.90496 9.33561 5.08029C9.03953 5.25581 8.86293 5.56585 8.86293 5.90998V11.6061C8.86293 11.9486 9.03844 12.2581 9.33253 12.4338C9.4861 12.5255 9.65635 12.5716 9.82697 12.5716C9.98326 12.5716 10.1399 12.533 10.2841 12.4554L15.5345 9.63215C15.8462 9.46444 16.0407 9.14043 16.0422 8.78633C16.0434 8.43222 15.8512 8.10677 15.5405 7.93669ZM10.2556 10.8896V6.63233L14.1795 8.77944L10.2556 10.8896Z"/>
<path d="M23.5902 4.24834L23.5891 4.23746C23.569 4.04617 23.3687 2.34474 22.5415 1.47933C21.5855 0.461441 20.5016 0.337786 19.9803 0.278496C19.9371 0.273601 19.8976 0.269068 19.8623 0.264354L19.8207 0.260002C16.679 0.0315484 11.9342 0.000362625 11.8867 0.000181313L11.8825 0L11.8783 0.000181313C11.8308 0.000362625 7.08606 0.0315484 3.91599 0.260002L3.87411 0.264354C3.84038 0.268887 3.80322 0.273057 3.76278 0.277771C3.24749 0.337242 2.17521 0.461078 1.21643 1.51577C0.428623 2.37193 0.200894 4.03693 0.177505 4.22404L0.174785 4.24834C0.167714 4.32793 0 6.22283 0 8.12517V9.90348C0 11.8058 0.167714 13.7007 0.174785 13.7805L0.176055 13.7925C0.19618 13.9807 0.39635 15.6509 1.21969 16.5167C2.11864 17.5005 3.25529 17.6307 3.86667 17.7007C3.96331 17.7117 4.04654 17.7211 4.10329 17.7311L4.15823 17.7387C5.97226 17.9113 11.6599 17.9964 11.901 17.9998L11.9083 18L11.9155 17.9998C11.963 17.9996 16.7076 17.9685 19.8494 17.74L19.8909 17.7356C19.9306 17.7304 19.9752 17.7257 20.0242 17.7206C20.5366 17.6662 21.603 17.5532 22.5486 16.5129C23.3364 15.6565 23.5643 13.9915 23.5875 13.8046L23.5902 13.7803C23.5973 13.7005 23.7652 11.8058 23.7652 9.90348V8.12517C23.765 6.22283 23.5973 4.32812 23.5902 4.24834ZM22.3724 9.90348C22.3724 11.6642 22.2186 13.4775 22.2041 13.644C22.145 14.1025 21.9048 15.1559 21.5209 15.5731C20.9291 16.2242 20.3212 16.2888 19.8773 16.3357C19.8236 16.3414 19.774 16.3468 19.729 16.3524C16.6902 16.5722 12.1246 16.6059 11.9142 16.6072C11.6784 16.6037 6.07398 16.518 4.31524 16.3546C4.22513 16.3399 4.12777 16.3287 4.02514 16.3171C3.50459 16.2574 2.79203 16.1758 2.24411 15.5731L2.23123 15.5593C1.8541 15.1664 1.62075 14.1814 1.56147 13.6494C1.55041 13.5236 1.39266 11.6889 1.39266 9.90348V8.12517C1.39266 6.36643 1.54605 4.55512 1.56092 4.38523C1.63145 3.8451 1.87622 2.85549 2.24411 2.45552C2.85404 1.78466 3.49716 1.71032 3.92252 1.66119C3.96313 1.65647 4.00103 1.65212 4.03602 1.64759C7.11906 1.42675 11.7175 1.39393 11.8825 1.39266C12.0475 1.39375 16.6443 1.42675 19.7 1.64759C19.7375 1.6523 19.7785 1.65702 19.8226 1.66209C20.2601 1.71195 20.9213 1.78738 21.5282 2.43467L21.5338 2.44065C21.9109 2.83355 22.1443 3.83585 22.2036 4.37852C22.2141 4.49728 22.3724 6.33597 22.3724 8.12517V9.90348Z"/>
</svg>
