<svg width="18" height="14" viewBox="0 0 18 14" fill="none" xmlns="http://www.w3.org/2000/svg">
<path d="M16.418 0H1.58203C0.710789 0 0 0.724985 0 1.61538V12.3846C0 13.272 0.707625 14 1.58203 14H16.418C17.287 14 18 13.2775 18 12.3846V1.61538C18 0.728 17.2924 0 16.418 0ZM16.1995 1.07692L9.03354 8.39401L1.80559 1.07692H16.1995ZM1.05469 12.1616V1.83325L6.13403 6.9752L1.05469 12.1616ZM1.80046 12.9231L6.883 7.73338L8.66391 9.53623C8.87006 9.74493 9.20275 9.74425 9.40806 9.53457L11.1445 7.76149L16.1995 12.9231H1.80046ZM16.9453 12.1616L11.8903 7L16.9453 1.83838V12.1616Z" fill="white"/>
</svg>
