<svg width="18" height="18" viewBox="0 0 18 18" fill="none" xmlns="http://www.w3.org/2000/svg">
<path d="M10.1297 4.51874H7.30547C7.01423 4.51874 6.77813 4.75485 6.77813 5.04608V9.03748H6.17579C5.88456 9.03748 5.64845 9.27359 5.64845 9.56482C5.64845 9.85606 5.88456 10.0922 6.17579 10.0922H6.77813V11.2969H6.17579C5.88456 11.2969 5.64845 11.533 5.64845 11.8242C5.64845 12.1154 5.88456 12.3516 6.17579 12.3516H6.77813V13.5187C6.77813 13.81 7.01423 14.0461 7.30547 14.0461C7.5967 14.0461 7.83281 13.81 7.83281 13.5187V12.3516H10.1297C10.4209 12.3516 10.6571 12.1154 10.6571 11.8242C10.6571 11.533 10.4209 11.2969 10.1297 11.2969H7.83281V10.0922H10.1297C11.6663 10.0922 12.9164 8.84204 12.9164 7.30543C12.9164 5.73086 11.6338 4.51874 10.1297 4.51874ZM10.1297 9.03748H7.83281V5.57343H10.1297C11.079 5.57343 11.8618 6.33913 11.8618 7.30547C11.8617 8.26052 11.0848 9.03748 10.1297 9.03748Z" fill="#60829D"/>
<path d="M9 0C4.03738 0 0 4.03738 0 9C0 13.9626 4.03738 18 9 18C13.9626 18 18 13.9626 18 9C18 4.03738 13.9626 0 9 0ZM9 16.9453C4.61893 16.9453 1.05469 13.3811 1.05469 9C1.05469 4.61893 4.61893 1.05469 9 1.05469C13.3811 1.05469 16.9453 4.61893 16.9453 9C16.9453 13.3811 13.3811 16.9453 9 16.9453Z" fill="#60829D"/>
</svg>
