<svg width="277" height="254" viewBox="0 0 277 254" fill="none" xmlns="http://www.w3.org/2000/svg">
<g opacity="0.1">
<path d="M28.732 34.5024C31.9176 34.5024 34.5 31.9198 34.5 28.7341C34.5 25.5483 31.9176 22.9657 28.732 22.9657C25.5465 22.9657 22.9641 25.5483 22.9641 28.7341C22.9641 31.9198 25.5465 34.5024 28.732 34.5024Z" fill="white"/>
<path d="M51.75 34.5024C54.9356 34.5024 57.518 31.9198 57.518 28.7341C57.518 25.5483 54.9356 22.9657 51.75 22.9657C48.5644 22.9657 45.982 25.5483 45.982 28.7341C45.982 31.9198 48.5644 34.5024 51.75 34.5024Z" fill="white"/>
<path d="M74.768 34.5024C77.9535 34.5024 80.5359 31.9198 80.5359 28.7341C80.5359 25.5483 77.9535 22.9657 74.768 22.9657C71.5824 22.9657 69 25.5483 69 28.7341C69 31.9198 71.5824 34.5024 74.768 34.5024Z" fill="white"/>
<path d="M63.232 114.99H189.75C192.93 114.99 195.518 112.403 195.518 109.222C195.518 106.041 192.93 103.453 189.75 103.453H63.232C60.0515 103.453 57.464 106.041 57.464 109.222C57.464 112.403 60.0515 114.99 63.232 114.99Z" fill="white"/>
<path d="M132.232 172.512H63.232C60.0515 172.512 57.464 175.1 57.464 178.281C57.464 181.461 60.0515 184.049 63.232 184.049H132.232C135.412 184.049 138 181.461 138 178.281C138 175.1 135.412 172.512 132.232 172.512Z" fill="white"/>
<path d="M254.006 69.0049C253.683 69.0049 253.359 69.1127 253.036 69.1127V23.0196C253.036 10.3507 242.74 0 230.018 0H23.018C10.2961 0 0 10.2968 0 23.0196V230.034C0 242.703 10.2961 253.054 23.018 253.054H230.018C242.686 253.054 253.036 242.757 253.036 230.034V123.131L269.585 106.58C273.682 102.483 276.054 96.8225 276.054 91.0002C276 78.8704 266.135 69.0049 254.006 69.0049ZM11.482 23.0196C11.482 16.6582 16.657 11.5368 22.9641 11.5368H229.964C236.325 11.5368 241.446 16.7121 241.446 23.0196V46.0392H11.482V23.0196ZM241.5 230.034C241.5 236.396 236.325 241.517 230.018 241.517H23.018C16.657 241.517 11.5359 236.342 11.5359 230.034V57.522H241.5V72.9403C240.422 73.6951 239.344 74.5037 238.427 75.4741L175.842 138.01H63.232C60.0516 138.01 57.4641 140.597 57.4641 143.778C57.4641 146.959 60.0516 149.547 63.232 149.547H166.624L161.126 177.149C160.748 179.035 161.341 180.976 162.689 182.324C163.767 183.402 165.277 183.995 166.732 183.995C167.109 183.995 167.487 183.941 167.864 183.887L196.596 178.119C197.728 177.903 198.752 177.364 199.561 176.555L241.5 134.613V230.034ZM192.661 167.229L174.063 170.949L177.783 152.35L229.964 100.165L244.842 115.044L192.661 167.229ZM261.445 98.4398L253.036 106.85L238.158 91.9706L246.567 83.5606C248.508 81.6199 251.203 80.4877 254.006 80.4877C259.828 80.4877 264.518 85.2318 264.518 91.0002C264.518 93.8035 263.386 96.499 261.445 98.4398Z" fill="white"/>
</g>
</svg>
