<svg width="18" height="18" viewBox="0 0 18 18" fill="none" xmlns="http://www.w3.org/2000/svg">
<path d="M17.5544 3.66176C17.7971 3.66176 17.9956 3.46324 18 3.22059V0.445588C18 0.198529 17.8015 0 17.5544 0H14.7794C14.5368 0 14.3382 0.198529 14.3382 0.445588V1.41176H3.66176V0.445588C3.66176 0.202941 3.46324 0.00441176 3.22059 0H0.445588C0.202941 0 0.00441176 0.198529 0 0.445588V3.22059C0 3.46324 0.198529 3.66176 0.445588 3.66176H1.41176V14.3382H0.445588C0.202941 14.3382 0.00441176 14.5368 0 14.7794V17.5544C0 17.7971 0.198529 17.9956 0.445588 18H3.22059C3.46324 18 3.66176 17.8015 3.66176 17.5544V16.5882H14.3382V17.5544C14.3382 17.7971 14.5368 17.9956 14.7794 18H17.5544C17.7971 18 17.9956 17.8015 18 17.5544V14.7794C18 14.5368 17.8015 14.3382 17.5544 14.3382H16.5882V3.66176H17.5544ZM0.882353 2.77941V0.882353H2.77941V2.77941H0.882353ZM2.77941 17.1176H0.882353V15.2206H2.77941V17.1176ZM14.3382 14.7794V15.7059H3.66176V14.7794C3.66176 14.5368 3.46324 14.3382 3.22059 14.3382H2.29412V3.66176H3.22059C3.46324 3.66176 3.66176 3.46324 3.66176 3.22059V2.29412H14.3382V3.22059C14.3382 3.46324 14.5368 3.66176 14.7794 3.66176H15.7059V14.3382H14.7794C14.5368 14.3382 14.3382 14.5368 14.3382 14.7794ZM17.1176 15.2206V17.1176H15.2206V15.2206H17.1176ZM15.2206 2.77941V0.882353H17.1176V2.77941H15.2206Z" fill="#60829D"/>
</svg>
