<svg width="154" height="131" viewBox="0 0 154 131" fill="none" xmlns="http://www.w3.org/2000/svg">
<g opacity="0.1">
<path d="M148.077 11.9091C144.806 11.9091 142.154 9.24315 142.154 5.95454C142.154 2.66594 144.806 -4.01896e-07 148.077 -2.58906e-07C151.348 -1.15916e-07 154 2.66594 154 5.95455C154 9.24315 151.348 11.9091 148.077 11.9091Z" fill="#C4C4C4"/>
<path d="M148.077 35.7273C144.806 35.7273 142.154 33.0613 142.154 29.7727C142.154 26.4841 144.806 23.8182 148.077 23.8182C151.348 23.8182 154 26.4841 154 29.7727C154 33.0613 151.348 35.7273 148.077 35.7273Z" fill="#C4C4C4"/>
<path d="M148.077 59.5455C144.806 59.5455 142.154 56.8795 142.154 53.5909C142.154 50.3023 144.806 47.6364 148.077 47.6364C151.348 47.6364 154 50.3023 154 53.5909C154 56.8795 151.348 59.5455 148.077 59.5455Z" fill="#C4C4C4"/>
<path d="M148.077 83.3636C144.806 83.3636 142.154 80.6977 142.154 77.4091C142.154 74.1205 144.806 71.4546 148.077 71.4546C151.348 71.4546 154 74.1205 154 77.4091C154 80.6977 151.348 83.3636 148.077 83.3636Z" fill="#C4C4C4"/>
<path d="M148.077 107.182C144.806 107.182 142.154 104.516 142.154 101.227C142.154 97.9387 144.806 95.2727 148.077 95.2727C151.348 95.2727 154 97.9387 154 101.227C154 104.516 151.348 107.182 148.077 107.182Z" fill="#C4C4C4"/>
<path d="M148.077 131C144.806 131 142.154 128.334 142.154 125.045C142.154 121.757 144.806 119.091 148.077 119.091C151.348 119.091 154 121.757 154 125.045C154 128.334 151.348 131 148.077 131Z" fill="#C4C4C4"/>
<path d="M124.385 11.9091C121.113 11.9091 118.462 9.24315 118.462 5.95454C118.462 2.66594 121.113 -1.43752e-06 124.385 -1.29453e-06C127.656 -1.15154e-06 130.308 2.66594 130.308 5.95454C130.308 9.24315 127.656 11.9091 124.385 11.9091Z" fill="#C4C4C4"/>
<path d="M124.385 35.7273C121.113 35.7273 118.462 33.0613 118.462 29.7727C118.462 26.4841 121.113 23.8182 124.385 23.8182C127.656 23.8182 130.308 26.4841 130.308 29.7727C130.308 33.0613 127.656 35.7273 124.385 35.7273Z" fill="#C4C4C4"/>
<path d="M124.385 59.5455C121.113 59.5455 118.462 56.8795 118.462 53.5909C118.462 50.3023 121.113 47.6364 124.385 47.6364C127.656 47.6364 130.308 50.3023 130.308 53.5909C130.308 56.8795 127.656 59.5455 124.385 59.5455Z" fill="#C4C4C4"/>
<path d="M124.385 83.3636C121.113 83.3636 118.462 80.6977 118.462 77.4091C118.462 74.1205 121.113 71.4546 124.385 71.4546C127.656 71.4546 130.308 74.1205 130.308 77.4091C130.308 80.6977 127.656 83.3636 124.385 83.3636Z" fill="#C4C4C4"/>
<path d="M124.385 107.182C121.113 107.182 118.462 104.516 118.462 101.227C118.462 97.9387 121.113 95.2727 124.385 95.2727C127.656 95.2727 130.308 97.9387 130.308 101.227C130.308 104.516 127.656 107.182 124.385 107.182Z" fill="#C4C4C4"/>
<path d="M124.385 131C121.113 131 118.462 128.334 118.462 125.045C118.462 121.757 121.113 119.091 124.385 119.091C127.656 119.091 130.308 121.757 130.308 125.045C130.308 128.334 127.656 131 124.385 131Z" fill="#C4C4C4"/>
<path d="M100.692 11.9091C97.4211 11.9091 94.7692 9.24315 94.7692 5.95454C94.7692 2.66594 97.4211 -2.47314e-06 100.692 -2.33015e-06C103.964 -2.18716e-06 106.615 2.66594 106.615 5.95454C106.615 9.24315 103.964 11.9091 100.692 11.9091Z" fill="#C4C4C4"/>
<path d="M100.692 35.7273C97.4211 35.7273 94.7692 33.0613 94.7692 29.7727C94.7692 26.4841 97.4211 23.8182 100.692 23.8182C103.964 23.8182 106.615 26.4841 106.615 29.7727C106.615 33.0613 103.964 35.7273 100.692 35.7273Z" fill="#C4C4C4"/>
<path d="M100.692 59.5455C97.4211 59.5455 94.7692 56.8795 94.7692 53.5909C94.7692 50.3023 97.4211 47.6364 100.692 47.6364C103.964 47.6364 106.615 50.3023 106.615 53.5909C106.615 56.8795 103.964 59.5455 100.692 59.5455Z" fill="#C4C4C4"/>
<path d="M100.692 83.3636C97.4211 83.3636 94.7692 80.6977 94.7692 77.4091C94.7692 74.1205 97.4211 71.4545 100.692 71.4545C103.964 71.4545 106.615 74.1205 106.615 77.4091C106.615 80.6977 103.964 83.3636 100.692 83.3636Z" fill="#C4C4C4"/>
<path d="M100.692 107.182C97.4211 107.182 94.7692 104.516 94.7692 101.227C94.7692 97.9387 97.4211 95.2727 100.692 95.2727C103.964 95.2727 106.615 97.9387 106.615 101.227C106.615 104.516 103.964 107.182 100.692 107.182Z" fill="#C4C4C4"/>
<path d="M100.692 131C97.4211 131 94.7692 128.334 94.7692 125.045C94.7692 121.757 97.4211 119.091 100.692 119.091C103.964 119.091 106.615 121.757 106.615 125.045C106.615 128.334 103.964 131 100.692 131Z" fill="#C4C4C4"/>
<path d="M77 11.9091C73.7288 11.9091 71.0769 9.24315 71.0769 5.95454C71.0769 2.66594 73.7288 -3.50877e-06 77 -3.36578e-06C80.2712 -3.22279e-06 82.9231 2.66594 82.9231 5.95454C82.9231 9.24315 80.2712 11.9091 77 11.9091Z" fill="#C4C4C4"/>
<path d="M77 35.7273C73.7288 35.7273 71.0769 33.0613 71.0769 29.7727C71.0769 26.4841 73.7288 23.8182 77 23.8182C80.2712 23.8182 82.9231 26.4841 82.9231 29.7727C82.9231 33.0613 80.2712 35.7273 77 35.7273Z" fill="#C4C4C4"/>
<path d="M77 59.5455C73.7288 59.5455 71.0769 56.8795 71.0769 53.5909C71.0769 50.3023 73.7288 47.6364 77 47.6364C80.2712 47.6364 82.9231 50.3023 82.9231 53.5909C82.9231 56.8795 80.2712 59.5455 77 59.5455Z" fill="#C4C4C4"/>
<path d="M77 83.3636C73.7288 83.3636 71.0769 80.6977 71.0769 77.4091C71.0769 74.1205 73.7288 71.4545 77 71.4545C80.2712 71.4545 82.9231 74.1205 82.9231 77.4091C82.9231 80.6977 80.2712 83.3636 77 83.3636Z" fill="#C4C4C4"/>
<path d="M77 107.182C73.7288 107.182 71.0769 104.516 71.0769 101.227C71.0769 97.9387 73.7288 95.2727 77 95.2727C80.2712 95.2727 82.9231 97.9387 82.9231 101.227C82.9231 104.516 80.2712 107.182 77 107.182Z" fill="#C4C4C4"/>
<path d="M77 131C73.7288 131 71.0769 128.334 71.0769 125.045C71.0769 121.757 73.7288 119.091 77 119.091C80.2712 119.091 82.9231 121.757 82.9231 125.045C82.9231 128.334 80.2712 131 77 131Z" fill="#C4C4C4"/>
<path d="M53.3077 11.9091C50.0365 11.9091 47.3846 9.24315 47.3846 5.95454C47.3846 2.66594 50.0365 -4.54439e-06 53.3077 -4.4014e-06C56.5789 -4.25841e-06 59.2308 2.66594 59.2308 5.95454C59.2308 9.24315 56.5789 11.9091 53.3077 11.9091Z" fill="#C4C4C4"/>
<path d="M53.3077 35.7273C50.0365 35.7273 47.3846 33.0613 47.3846 29.7727C47.3846 26.4841 50.0365 23.8182 53.3077 23.8182C56.5789 23.8182 59.2308 26.4841 59.2308 29.7727C59.2308 33.0613 56.5789 35.7273 53.3077 35.7273Z" fill="#C4C4C4"/>
<path d="M53.3077 59.5455C50.0365 59.5455 47.3846 56.8795 47.3846 53.5909C47.3846 50.3023 50.0365 47.6364 53.3077 47.6364C56.5789 47.6364 59.2308 50.3023 59.2308 53.5909C59.2308 56.8795 56.5789 59.5455 53.3077 59.5455Z" fill="#C4C4C4"/>
<path d="M53.3077 83.3636C50.0365 83.3636 47.3846 80.6977 47.3846 77.4091C47.3846 74.1205 50.0365 71.4545 53.3077 71.4545C56.5789 71.4545 59.2308 74.1205 59.2308 77.4091C59.2308 80.6977 56.5789 83.3636 53.3077 83.3636Z" fill="#C4C4C4"/>
<path d="M53.3077 107.182C50.0365 107.182 47.3846 104.516 47.3846 101.227C47.3846 97.9387 50.0365 95.2727 53.3077 95.2727C56.5789 95.2727 59.2308 97.9387 59.2308 101.227C59.2308 104.516 56.5789 107.182 53.3077 107.182Z" fill="#C4C4C4"/>
<path d="M53.3077 131C50.0365 131 47.3846 128.334 47.3846 125.045C47.3846 121.757 50.0365 119.091 53.3077 119.091C56.5789 119.091 59.2308 121.757 59.2308 125.045C59.2308 128.334 56.5789 131 53.3077 131Z" fill="#C4C4C4"/>
<path d="M29.6154 11.9091C26.3442 11.9091 23.6923 9.24315 23.6923 5.95454C23.6923 2.66594 26.3442 -5.58001e-06 29.6154 -5.43702e-06C32.8866 -5.29403e-06 35.5385 2.66594 35.5385 5.95454C35.5385 9.24315 32.8866 11.9091 29.6154 11.9091Z" fill="#C4C4C4"/>
<path d="M29.6154 35.7273C26.3442 35.7273 23.6923 33.0613 23.6923 29.7727C23.6923 26.4841 26.3442 23.8182 29.6154 23.8182C32.8866 23.8182 35.5385 26.4841 35.5385 29.7727C35.5385 33.0613 32.8866 35.7273 29.6154 35.7273Z" fill="#C4C4C4"/>
<path d="M29.6154 59.5455C26.3442 59.5455 23.6923 56.8795 23.6923 53.5909C23.6923 50.3023 26.3442 47.6364 29.6154 47.6364C32.8866 47.6364 35.5385 50.3023 35.5385 53.5909C35.5385 56.8795 32.8866 59.5455 29.6154 59.5455Z" fill="#C4C4C4"/>
<path d="M29.6154 83.3636C26.3442 83.3636 23.6923 80.6977 23.6923 77.4091C23.6923 74.1205 26.3442 71.4545 29.6154 71.4545C32.8866 71.4545 35.5385 74.1205 35.5385 77.4091C35.5385 80.6977 32.8866 83.3636 29.6154 83.3636Z" fill="#C4C4C4"/>
<path d="M29.6154 107.182C26.3442 107.182 23.6923 104.516 23.6923 101.227C23.6923 97.9387 26.3442 95.2727 29.6154 95.2727C32.8866 95.2727 35.5385 97.9387 35.5385 101.227C35.5385 104.516 32.8866 107.182 29.6154 107.182Z" fill="#C4C4C4"/>
<path d="M29.6154 131C26.3442 131 23.6923 128.334 23.6923 125.045C23.6923 121.757 26.3442 119.091 29.6154 119.091C32.8866 119.091 35.5385 121.757 35.5385 125.045C35.5385 128.334 32.8866 131 29.6154 131Z" fill="#C4C4C4"/>
<path d="M5.92308 11.9091C2.65185 11.9091 -4.04031e-07 9.24314 -2.60281e-07 5.95454C-1.16532e-07 2.66593 2.65186 -6.61564e-06 5.92308 -6.47265e-06C9.19431 -6.32966e-06 11.8462 2.66593 11.8462 5.95454C11.8462 9.24314 9.1943 11.9091 5.92308 11.9091Z" fill="#C4C4C4"/>
<path d="M5.92308 35.7273C2.65185 35.7273 -1.44516e-06 33.0613 -1.30141e-06 29.7727C-1.15766e-06 26.4841 2.65185 23.8182 5.92308 23.8182C9.1943 23.8182 11.8462 26.4841 11.8462 29.7727C11.8462 33.0613 9.1943 35.7273 5.92308 35.7273Z" fill="#C4C4C4"/>
<path d="M5.92308 59.5454C2.65185 59.5454 -2.48628e-06 56.8795 -2.34253e-06 53.5909C-2.19878e-06 50.3023 2.65185 47.6364 5.92308 47.6364C9.1943 47.6364 11.8462 50.3023 11.8462 53.5909C11.8462 56.8795 9.1943 59.5454 5.92308 59.5454Z" fill="#C4C4C4"/>
<path d="M5.92308 83.3636C2.65185 83.3636 -3.52741e-06 80.6977 -3.38366e-06 77.4091C-3.23991e-06 74.1205 2.65185 71.4545 5.92308 71.4545C9.1943 71.4545 11.8462 74.1205 11.8462 77.4091C11.8462 80.6977 9.1943 83.3636 5.92308 83.3636Z" fill="#C4C4C4"/>
<path d="M5.92308 107.182C2.65185 107.182 -4.56853e-06 104.516 -4.42478e-06 101.227C-4.28104e-06 97.9387 2.65185 95.2727 5.92308 95.2727C9.1943 95.2727 11.8462 97.9387 11.8462 101.227C11.8462 104.516 9.1943 107.182 5.92308 107.182Z" fill="#C4C4C4"/>
<path d="M5.92307 131C2.65185 131 -5.60966e-06 128.334 -5.46591e-06 125.045C-5.32216e-06 121.757 2.65185 119.091 5.92308 119.091C9.1943 119.091 11.8462 121.757 11.8462 125.045C11.8462 128.334 9.1943 131 5.92307 131Z" fill="#C4C4C4"/>
</g>
</svg>
