<svg width="216" height="91" viewBox="0 0 216 91" fill="none" xmlns="http://www.w3.org/2000/svg">
<path d="M41.8189 83.6481C30.6463 83.6481 20.1433 79.2947 12.2484 71.3997C4.35339 63.4946 0 52.9917 0 41.819C0 30.6463 4.35339 20.1433 12.2484 12.2484C20.1535 4.35339 30.6463 0 41.8189 0C52.9916 0 63.4946 4.35339 71.3895 12.2484C79.2845 20.1433 83.6379 30.6463 83.6379 41.819C83.6379 52.9917 79.2845 63.4946 71.3895 71.3896C63.4946 79.2947 52.9916 83.6481 41.8189 83.6481ZM41.8189 2.55724C31.7625 2.55724 21.6959 6.38295 14.0445 14.0445C-1.26847 29.3575 -1.26847 54.2804 14.0445 69.6035C29.3575 84.9165 54.2804 84.9165 69.6035 69.6035C84.9165 54.2906 84.9165 29.3676 69.6035 14.0445C61.942 6.38295 51.8855 2.55724 41.8189 2.55724Z" fill="#333333"/>
<path d="M51.6995 82.6386C44.1911 84.6504 36.3316 83.7832 29.4127 80.1532C22.1164 76.3301 16.7426 69.8801 14.2891 62.0174C11.833 54.1448 12.5911 45.7998 16.4213 38.491C16.6359 38.0763 16.8629 37.6688 17.1023 37.2685C17.4539 36.6595 18.2309 36.4618 18.8399 36.8134C19.4489 37.165 19.6466 37.942 19.295 38.551C19.0797 38.9238 18.8742 39.294 18.6714 39.6741C15.1607 46.3719 14.4626 54.0391 16.7133 61.2628C18.9641 68.4864 23.8979 74.3924 30.5984 77.9129C37.2962 81.4236 44.9732 82.1191 52.1871 79.871C59.4108 77.6202 65.3167 72.6864 68.8372 65.9859C72.3479 59.2881 73.046 51.6209 70.7953 44.3972C68.5445 37.1736 63.6107 31.2676 56.9102 27.7471C51.3001 24.8064 45.0511 23.8334 38.8321 24.9324C38.14 25.0548 37.4799 24.5909 37.3601 23.9086C37.2377 23.2165 37.7016 22.5564 38.3839 22.4366C45.1624 21.2296 51.9717 22.2942 58.0835 25.4997C65.3825 29.3326 70.7536 35.7727 73.2071 43.6354C75.6632 51.508 74.9078 59.8629 71.0748 67.1618C67.2419 74.4608 60.8018 79.8319 52.9391 82.2854C52.5202 82.4081 52.1111 82.5282 51.6995 82.6386Z" fill="#333333"/>
<path d="M106.438 45.4144L119.835 61.5439H126.718L115.107 47.7261C121.412 46.6228 124.616 41.6841 124.616 36.4828C124.616 30.6509 120.623 24.2937 112.638 24.2937H99.24V61.5439H104.494V29.6527H112.638C117.103 29.6527 119.31 33.3304 119.31 36.4828C119.31 39.6877 117.103 42.8925 112.638 42.8925H106.438V45.4144ZM138.471 56.2375V29.7577H146.352C154.863 29.7577 159.172 36.6929 159.172 43.2078C159.172 49.7226 154.863 56.2375 146.352 56.2375H138.471ZM133.165 24.4513V61.5439H146.352C158.384 61.5439 164.426 52.4021 164.426 43.2078C164.426 34.0134 158.384 24.4513 146.352 24.4513H133.165ZM207.855 37.6912C205.858 27.7087 197.189 24.1886 189.992 24.1886C179.641 24.1886 171.55 32.122 171.55 43.2078C171.55 54.241 179.484 62.1744 189.992 62.1744C196.822 62.1744 204.492 57.1832 207.067 50.0379V50.0904C207.592 48.8295 207.855 46.7279 208.118 43.5755H187.89V48.9871H201.76C199.554 54.4512 194.615 56.973 189.992 56.973C182.636 56.973 176.962 51.1412 176.962 43.2078C176.962 35.3269 182.636 29.6001 189.992 29.6001C194.773 29.6001 200.552 31.6492 202.076 37.6912H207.855Z" fill="#333333"/>
<path d="M101.761 67.2666H99.7903V80.9038H108.179V78.9333H101.761V67.2666ZM112.682 75.0704H118.866V73.0805H112.682V69.2371H119.003V67.2666H110.692V80.9038H119.022V78.9333H112.682V75.0704ZM119.892 67.2666C121.141 69.0029 123.365 72.105 124.828 74.1145L119.892 80.9038H122.311L126.018 75.7923L129.744 80.9038H132.144C130.837 79.0894 128.671 76.124 127.208 74.1145L132.144 67.2666H129.744L126.018 72.3781L122.311 67.2666H119.892Z" fill="#333333"/>
</svg>
