<svg width="50" height="50" viewBox="0 0 50 50" fill="none" xmlns="http://www.w3.org/2000/svg">
<path d="M45.8289 15.6942C45.9947 14.8568 46.0784 14.016 46.0784 13.1836C46.0784 5.91416 40.1411 0 32.8431 0C28.1424 0 23.8213 2.49805 21.4579 6.47451C20.399 6.06963 19.2731 5.85938 18.1373 5.85938C13.4705 5.85938 9.59441 9.29619 8.92549 13.7621C3.89392 14.4308 0 18.7338 0 23.9258C0 29.5798 4.61794 34.1797 10.2941 34.1797H20.5882V37.3047H18.1373C17.5889 37.3047 17.0861 37.6086 16.8328 38.0931C16.5796 38.5775 16.618 39.1621 16.9326 39.6096L23.7953 49.3752C24.0705 49.7668 24.5202 50 25 50C25.4798 50 25.9295 49.7668 26.2047 49.3752L33.0675 39.6096C33.382 39.1621 33.4204 38.5775 33.1672 38.0931C32.9139 37.6086 32.4111 37.3047 31.8627 37.3047H29.4118V34.1797H39.7059C45.3821 34.1797 50 29.5798 50 23.9258C50 20.6788 48.4257 17.6159 45.8289 15.6942ZM25 45.9808L20.9618 40.2344H22.0588C22.871 40.2344 23.5294 39.5785 23.5294 38.7695V20.7031H26.4706V38.7695C26.4706 39.5785 27.129 40.2344 27.9412 40.2344H29.0382L25 45.9808ZM39.7059 31.25H29.4118V19.2383C29.4118 18.4293 28.7533 17.7734 27.9412 17.7734H22.0588C21.2467 17.7734 20.5882 18.4293 20.5882 19.2383V31.25H10.2941C6.23971 31.25 2.94118 27.9644 2.94118 23.9258C2.94118 19.8872 6.23971 16.6016 10.2941 16.6016C11.1063 16.6016 11.7647 15.9457 11.7647 15.1367C11.7647 11.6366 14.6234 8.78906 18.1373 8.78906C19.2643 8.78906 20.379 9.09346 21.3608 9.66934C21.7214 9.88076 22.1553 9.9293 22.5541 9.80264C22.9528 9.67588 23.2785 9.38584 23.4494 9.00537C25.1071 5.31445 28.7943 2.92969 32.8431 2.92969C38.5193 2.92969 43.1373 7.52959 43.1373 13.1836C43.1373 14.0974 43.0054 15.0293 42.7454 15.9533C42.5651 16.5939 42.8409 17.2751 43.4169 17.6119C45.6633 18.9256 47.0588 21.3449 47.0588 23.9258C47.0588 27.9644 43.7603 31.25 39.7059 31.25Z" fill="#282D4C"/>
</svg>
