<svg width="51" height="36" viewBox="0 0 51 36" fill="none" xmlns="http://www.w3.org/2000/svg">
<path d="M45.0001 0H5.4C2.41766 0 0 2.41766 0 5.40001V30.6C0 33.5823 2.41766 36 5.4 36H45.0001C47.9824 36 50.4001 33.5823 50.4001 30.6V5.40001C50.4001 2.41766 47.9824 0 45.0001 0ZM46.8 30.6C46.8 31.5941 45.9941 32.4 45 32.4H5.4C4.40586 32.4 3.59997 31.5941 3.59997 30.6V29.5452L10.8 22.3452L16.7275 28.2726C17.4303 28.9754 18.5698 28.9754 19.2726 28.2726L34.2001 13.3452L46.8001 25.9452V30.6H46.8ZM46.8 20.8548L35.4727 9.52742C34.7698 8.82468 33.6303 8.82468 32.9275 9.52742L18.0001 24.4547L12.0726 18.5273C11.3698 17.8246 10.2303 17.8246 9.52742 18.5273L3.59997 24.4547V5.40001C3.59997 4.40586 4.40586 3.59997 5.4 3.59997H45.0001C45.9942 3.59997 46.8001 4.40586 46.8001 5.40001V20.8548H46.8Z" fill="white"/>
<path d="M16.2 7.19994C13.2177 7.19994 10.8 9.6176 10.8 12.5999C10.8 15.5823 13.2177 17.9999 16.2 17.9999C19.1823 17.9999 21.6 15.5823 21.6 12.5999C21.6 9.6176 19.1823 7.19994 16.2 7.19994ZM16.2 14.4C15.2059 14.4 14.4 13.5941 14.4 12.5999C14.4 11.6058 15.2059 10.7999 16.2 10.7999C17.1942 10.7999 18 11.6058 18 12.5999C18 13.5941 17.1942 14.4 16.2 14.4Z" fill="white"/>
</svg>
