<svg width="166" height="70" viewBox="0 0 166 70" fill="none" xmlns="http://www.w3.org/2000/svg">
<g clip-path="url(#clip0)">
<path d="M13.0176 63.1797H0V66.8139H13.0176V63.1797Z" fill="#C5C6C6"/>
<path d="M31.076 62.5078H17.6152V67.3161H31.076V62.5078Z" fill="#B8B8B9"/>
<path d="M51.1287 62.0039H35.4521V67.8745H51.1287V62.0039Z" fill="#AAABAB"/>
<path d="M71.5137 61.4453H55.2832V68.3782H71.5137V61.4453Z" fill="#9E9F9F"/>
<path d="M97.5489 60.9414H76.1113V68.9366H97.5489V60.9414Z" fill="#939494"/>
<path d="M128.902 60.3828H102.202V69.4403H128.902V60.3828Z" fill="white"/>
<path d="M165.075 59.8242H133.168V69.9999H165.075V59.8242Z" fill="white"/>
<path d="M148.069 0C146.185 0 144.302 0 142.363 0C137.378 10.1757 132.392 20.3514 127.407 30.5272C125.191 25.8866 123.03 21.246 120.815 16.6054C118.876 16.6054 116.993 16.6613 115.054 16.6613C119.153 25.3275 123.252 33.9377 127.351 42.6038C128.293 40.647 129.29 38.6342 130.232 36.6773C136.214 24.377 142.141 12.1885 148.069 0Z" fill="white"/>
<path d="M12.9622 54.6263H28.251V51.1598H12.9622C12.0759 51.048 9.36162 50.6007 7.03506 48.3084C4.32075 45.6247 3.93299 42.3819 3.87759 41.5432C3.87759 38.3563 3.87759 35.1694 3.87759 31.9266C3.87759 31.1438 4.09917 27.7892 6.81348 25.0496C9.25083 22.5895 12.1313 22.1981 12.9622 22.1422C18.0585 22.1422 23.2102 22.1422 28.3064 22.1422V18.6758H12.9622C11.9651 18.7317 7.36742 19.179 3.71141 23.0927C0.387759 26.671 0.0553942 30.8084 0 31.9825C0 35.1694 0 38.3563 0 41.5991C0.0553942 42.6614 0.498548 47.1343 4.20996 50.7684C7.69979 54.1231 11.799 54.5144 12.9622 54.6263Z" fill="white"/>
<path d="M67.747 22.1396V34.4958H89.6831V38.13H67.747V51.1571H92.0096C96.9397 40.8137 101.814 30.4702 106.689 20.1268C107.243 19.1763 108.24 18.6172 109.348 18.6172C110.954 18.6731 111.841 20.015 111.896 20.1268L126.686 51.1012H128.514C133.444 40.7578 138.375 30.4702 143.249 20.1268C143.305 20.0709 144.191 18.6172 145.908 18.6172C147.57 18.6731 148.401 20.015 148.456 20.1268L165.075 54.6236H160.532L155.879 44.6156H135.549L130.619 54.6236C95.1117 54.5677 69.4088 54.5677 67.747 54.6236C67.5254 54.6236 66.7499 54.6795 65.919 54.2881C64.9773 53.8408 64.4787 53.0022 64.3125 52.7226C63.9248 52.1076 63.814 51.5485 63.7586 51.1571C63.7586 35.4463 63.7586 23.9846 63.7586 22.1955C63.7586 21.8041 63.7032 20.5181 64.5341 19.7354C64.8665 19.3999 65.2542 19.2322 65.5312 19.0645C66.4175 18.6731 67.3038 18.6731 67.747 18.6731C75.059 18.6731 82.371 18.6731 89.6831 18.6731V22.1396H67.747ZM145.908 23.3137L137.322 41.0373H154.217L145.908 23.3137ZM95.9426 51.1012H122.144L109.348 23.2578L95.9426 51.1012Z" fill="white"/>
<path d="M35.0649 54.7354H31.7412V22.1396C31.7412 21.86 31.852 20.5741 32.9045 19.5677C33.7354 18.7849 34.7325 18.6172 35.0649 18.6172C39.8842 18.6172 44.7588 18.6172 49.5781 18.6172C50.1875 18.6172 50.963 18.6731 51.8493 18.8408C52.4032 18.9527 53.3449 19.1204 54.5082 19.6795C55.1176 19.959 56.8348 20.7977 58.0534 22.475C58.4412 23.0341 58.6628 23.4814 58.7182 23.705C59.0505 24.5437 59.1059 25.2705 59.1059 25.7178C59.1059 28.2897 59.1059 30.9175 59.1059 33.4894C59.1059 33.8808 59.0505 34.384 58.8844 34.999C58.829 35.1108 58.7182 35.4463 58.552 35.8935C58.4412 36.1172 57.8873 37.2354 56.6132 38.2418C56.2254 38.5213 55.9485 38.745 55.6715 38.9127C55.2837 39.1364 54.7298 39.4718 54.0651 39.7514C53.8435 39.8632 52.9018 40.1987 51.5169 40.4223C51.0184 40.4782 50.3537 40.59 49.5781 40.59C44.7588 40.59 39.8842 40.59 35.0649 40.59V54.7354ZM50.5752 37.0118C50.7968 37.0118 51.1292 37.0118 51.5169 36.9558C51.9601 36.8999 53.1234 36.6763 54.1759 35.7258C54.619 35.3344 55.5607 34.384 55.8377 32.9303C55.8931 32.5948 55.9485 32.2594 55.9485 32.0357C55.9485 30.4143 55.9485 28.737 55.9485 27.1156C55.9485 26.7242 55.8931 26.0533 55.5607 25.2705C55.1176 24.2082 54.3974 23.5932 54.0651 23.3137C53.8989 23.1459 52.9018 22.3632 51.3507 22.1955C51.0184 22.1396 50.7414 22.1396 50.5752 22.1396H35.0649V37.0118C40.2165 37.0118 45.4236 37.0118 50.5752 37.0118Z" fill="white"/>
</g>
<defs>
<clipPath id="clip0">
<rect width="165.075" height="70" fill="white"/>
</clipPath>
</defs>
</svg>
