<svg width="117" height="50" viewBox="0 0 117 50" fill="none" xmlns="http://www.w3.org/2000/svg">
<g clip-path="url(#clip0)">
<path d="M9.22651 45.1289H0V47.7248H9.22651V45.1289Z" fill="#C5C6C6"/>
<path d="M22.026 44.6484H12.4854V48.0829H22.026V44.6484Z" fill="#B8B8B9"/>
<path d="M36.239 44.2891H25.1279V48.4824H36.239V44.2891Z" fill="#AAABAB"/>
<path d="M50.6873 43.8906H39.1836V48.8427H50.6873V43.8906Z" fill="#9E9F9F"/>
<path d="M69.1396 43.5312H53.9453V49.2421H69.1396V43.5312Z" fill="#939494"/>
<path d="M91.3617 43.1328H72.4375V49.6025H91.3617V43.1328Z" fill="#E3000F"/>
<path d="M117 42.7305H94.3848V49.9988H117V42.7305Z" fill="#E3000F"/>
<path d="M104.947 0C103.612 0 102.277 0 100.903 0C97.3694 7.26837 93.8358 14.5367 90.3022 21.8051C88.7318 18.4904 87.2006 15.1757 85.6301 11.861C84.2559 11.861 82.921 11.901 81.5469 11.901C84.4522 18.0911 87.3576 24.2412 90.263 30.4313C90.9304 29.0335 91.6371 27.5958 92.3046 26.1981C96.5449 17.4121 100.746 8.70607 104.947 0Z" fill="#E3000F"/>
<path d="M9.18725 39.0188H20.0235V36.5427H9.18725C8.55906 36.4628 6.63524 36.1434 4.98624 34.506C3.06242 32.589 2.78758 30.2728 2.74832 29.6737C2.74832 27.3974 2.74832 25.121 2.74832 22.8047C2.74832 22.2456 2.90537 19.8494 4.8292 17.8926C6.55671 16.1354 8.59832 15.8558 9.18725 15.8159C12.7993 15.8159 16.4507 15.8159 20.0628 15.8159V13.3398H9.18725C8.48054 13.3798 5.22181 13.6993 2.63054 16.4948C0.274832 19.0507 0.0392618 22.006 0 22.8446C0 25.121 0 27.3974 0 29.7136C0.0392618 30.4724 0.353356 33.6673 2.98389 36.2632C5.45738 38.6593 8.36275 38.9389 9.18725 39.0188Z" fill="#005FAC"/>
<path d="M48.0168 15.8128V24.6387H63.5645V27.2346H48.0168V36.5397H65.2135C68.7078 29.1515 72.1628 21.7633 75.6178 14.3752C76.0105 13.6962 76.7172 13.2969 77.5024 13.2969C78.641 13.3368 79.2692 14.2953 79.3085 14.3752L89.7913 36.4998H91.087C94.5813 29.1116 98.0756 21.7633 101.531 14.3752C101.57 14.3352 102.198 13.2969 103.415 13.2969C104.593 13.3368 105.182 14.2953 105.221 14.3752L117 39.0157H113.78L110.482 31.8672H96.0732L92.5789 39.0157C67.4121 38.9758 49.1947 38.9758 48.0168 39.0157C47.8598 39.0157 47.3101 39.0557 46.7212 38.7761C46.0538 38.4566 45.7004 37.8576 45.5826 37.6579C45.3078 37.2186 45.2293 36.8192 45.19 36.5397C45.19 25.3176 45.19 17.1307 45.19 15.8528C45.19 15.5732 45.1507 14.6547 45.7397 14.0956C45.9752 13.856 46.2501 13.7362 46.4464 13.6164C47.0746 13.3368 47.7027 13.3368 48.0168 13.3368C53.1994 13.3368 58.3819 13.3368 63.5645 13.3368V15.8128H48.0168ZM103.415 16.6515L97.3296 29.3113H109.304L103.415 16.6515ZM68.0011 36.4998H86.5719L77.5024 16.6116L68.0011 36.4998Z" fill="#005FAC"/>
<path d="M24.8528 39.0956H22.4971V15.8128C22.4971 15.6132 22.5756 14.6946 23.3216 13.9758C23.9105 13.4167 24.6172 13.2969 24.8528 13.2969C28.2685 13.2969 31.7236 13.2969 35.1393 13.2969C35.5712 13.2969 36.1209 13.3368 36.7491 13.4566C37.1417 13.5365 37.8091 13.6563 38.6336 14.0557C39.0655 14.2553 40.2826 14.8544 41.1464 16.0525C41.4212 16.4518 41.5783 16.7713 41.6175 16.9311C41.8531 17.5301 41.8924 18.0493 41.8924 18.3688C41.8924 20.2058 41.8924 22.0828 41.8924 23.9199C41.8924 24.1994 41.8531 24.5589 41.7353 24.9982C41.6961 25.078 41.6175 25.3176 41.4997 25.6371C41.4212 25.7969 41.0286 26.5956 40.1256 27.3144C39.8508 27.5141 39.6544 27.6739 39.4581 27.7937C39.1833 27.9534 38.7907 28.193 38.3195 28.3927C38.1625 28.4726 37.4951 28.7122 36.5135 28.872C36.1602 28.9119 35.689 28.9918 35.1393 28.9918C31.7236 28.9918 28.2685 28.9918 24.8528 28.9918V39.0956ZM35.8461 26.4359C36.0031 26.4359 36.2387 26.4359 36.5135 26.3959C36.8276 26.356 37.6521 26.1962 38.3981 25.5173C38.7122 25.2378 39.3796 24.5589 39.5759 23.5205C39.6152 23.2809 39.6544 23.0413 39.6544 22.8815C39.6544 21.7234 39.6544 20.5253 39.6544 19.3672C39.6544 19.0876 39.6152 18.6084 39.3796 18.0493C39.0655 17.2905 38.5551 16.8512 38.3195 16.6515C38.2018 16.5317 37.495 15.9726 36.3957 15.8528C36.1602 15.8129 35.9638 15.8128 35.8461 15.8128H24.8528V26.4359C28.5041 26.4359 32.1947 26.4359 35.8461 26.4359Z" fill="#005FAC"/>
</g>
<defs>
<clipPath id="clip0">
<rect width="117" height="50" fill="white"/>
</clipPath>
</defs>
</svg>
