<?xml version="1.0" encoding="utf-8"?><svg viewBox="0 0 26 18" xmlns="http://www.w3.org/2000/svg" xmlns:xlink="http://www.w3.org/1999/xlink"><style>:root>svg{display:none}:root>svg:target{display:block}</style><svg viewBox="0 0 18 18" id="fb" xmlns="http://www.w3.org/2000/svg"><path d="M2.637 18h5.87v-6.398H6.399v-2.11h2.11V6.855a2.64 2.64 0 012.637-2.636h2.636v2.11h-2.11c-.58 0-1.054.472-1.054 1.054v2.11h3.07l-.352 2.109h-2.718V18h4.746A2.64 2.64 0 0018 15.363V2.637A2.64 2.64 0 0015.363 0H2.637A2.64 2.64 0 000 2.637v12.726A2.64 2.64 0 002.637 18zM1.055 2.637c0-.873.71-1.582 1.582-1.582h12.726c.873 0 1.582.71 1.582 1.582v12.726c0 .873-.71 1.582-1.582 1.582h-3.691v-4.289h2.556l.703-4.219h-3.26V7.383h3.165V3.164h-3.691a3.696 3.696 0 00-3.692 3.691v1.582h-2.11v4.22h2.11v4.288H2.637c-.873 0-1.582-.71-1.582-1.582V2.637z"/></svg><svg viewBox="0 0 18 18" id="inst" xmlns="http://www.w3.org/2000/svg"><path d="M13.128 0H4.872A4.878 4.878 0 000 4.872v8.256A4.878 4.878 0 004.872 18h8.256A4.878 4.878 0 0018 13.128V4.872A4.878 4.878 0 0013.128 0zm3.817 13.128a3.822 3.822 0 01-3.817 3.817H4.872a3.821 3.821 0 01-3.817-3.817V4.872a3.821 3.821 0 013.817-3.817h8.256a3.821 3.821 0 013.817 3.817v8.256z"/><path d="M9 4.078A4.927 4.927 0 004.078 9 4.927 4.927 0 009 13.922 4.927 4.927 0 0013.922 9 4.927 4.927 0 009 4.078zm0 8.789A3.87 3.87 0 015.133 9 3.871 3.871 0 019 5.134 3.87 3.87 0 0112.867 9 3.87 3.87 0 019 12.867zM14.04 2.33c-.802 0-1.455.653-1.455 1.455s.652 1.454 1.454 1.454c.803 0 1.455-.652 1.455-1.454 0-.802-.652-1.455-1.454-1.455zm0 1.854a.4.4 0 110-.8.4.4 0 010 .8z"/></svg><svg viewBox="0 0 26 16" id="vk" xmlns="http://www.w3.org/2000/svg"><path d="M12.955 16c3.703 0 2.383-2.345 2.668-3.019-.004-.503-.008-.987.009-1.282.235.066.788.347 1.932 1.458C19.329 14.94 19.78 16 21.206 16h2.625c.832 0 1.265-.345 1.482-.634.21-.28.414-.77.19-1.534-.586-1.838-4.001-5.014-4.213-5.349a3.01 3.01 0 01.11-.186h-.003c.675-.891 3.247-4.746 3.626-6.288A.02.02 0 0025.025 2c.205-.704.017-1.16-.177-1.419C24.556.195 24.091 0 23.462 0h-2.625c-.879 0-1.545.443-1.882 1.25-.565 1.435-2.15 4.385-3.338 5.43-.036-1.48-.012-2.61.007-3.45.039-1.636.163-3.23-1.537-3.23H9.963c-1.065 0-2.084 1.163-.98 2.543.964 1.21.346 1.884.554 5.24-.81-.87-2.253-3.218-3.273-6.218C5.978.753 5.545 0 4.325 0H1.7C.636.001 0 .581 0 1.553 0 3.735 4.83 16 12.955 16zM4.325 1.601c.232 0 .255 0 .427.488C5.796 5.164 8.139 9.714 9.85 9.714c1.285 0 1.285-1.317 1.285-1.813l-.001-3.949c-.07-1.307-.546-1.957-.859-2.352l3.742.004c.002.018-.021 4.368.01 5.422 0 1.497 1.189 2.354 3.044.477 1.957-2.21 3.31-5.512 3.365-5.646.08-.192.15-.257.401-.257h2.636l-.002.01c-.24 1.12-2.61 4.689-3.402 5.797a.917.917 0 00-.036.053c-.349.57-.633 1.2.048 2.085h.001c.062.074.223.25.458.492.73.753 3.232 3.328 3.454 4.352-.148.024-.308.007-2.788.012-.528 0-.94-.79-2.516-2.379-1.416-1.378-2.336-1.94-3.173-1.94-1.626 0-1.507 1.318-1.492 2.914.005 1.73-.006 1.183.006 1.292-.095.037-.367.112-1.076.112C6.187 14.4 1.779 3.658 1.61 1.604c.058-.005.866-.002 2.715-.003z"/></svg><svg viewBox="0 0 24 18" id="youtube" xmlns="http://www.w3.org/2000/svg"><path d="M15.54 7.937l-5.25-2.873a.956.956 0 00-.954.016.956.956 0 00-.473.83v5.696c0 .343.175.652.47.828a.962.962 0 00.951.021l5.25-2.823a.964.964 0 00.006-1.695zm-5.284 2.953V6.632L14.18 8.78l-3.924 2.11z"/><path d="M23.59 4.248v-.01c-.021-.192-.221-1.893-1.049-2.759-.956-1.018-2.04-1.141-2.56-1.2a6.177 6.177 0 01-.119-.015L19.821.26C16.679.032 11.934 0 11.887 0H11.878c-.047 0-4.792.032-7.962.26l-.042.004c-.034.005-.07.01-.111.014-.516.06-1.588.183-2.547 1.238C.43 2.372.201 4.036.178 4.224l-.003.024C.168 4.328 0 6.223 0 8.125v1.778c0 1.903.168 3.798.175 3.877l.001.013c.02.188.22 1.858 1.044 2.724.899.983 2.035 1.114 2.647 1.184.096.01.18.02.236.03l.055.008c1.814.172 7.502.257 7.743.26l.007.001h.008c.047 0 4.792-.032 7.933-.26l.042-.004c.04-.006.084-.01.133-.015.513-.055 1.579-.168 2.525-1.208.787-.857 1.015-2.522 1.038-2.708l.003-.025c.007-.08.175-1.974.175-3.877V8.125c0-1.902-.168-3.797-.175-3.877zm-1.218 5.655c0 1.761-.153 3.574-.168 3.741-.059.458-.3 1.512-.683 1.93-.592.65-1.2.715-1.644.762a8.477 8.477 0 00-.148.016c-3.039.22-7.604.254-7.815.255-.236-.003-5.84-.089-7.599-.252a6.09 6.09 0 00-.29-.038c-.52-.06-1.233-.141-1.78-.744l-.014-.014c-.377-.393-.61-1.378-.67-1.91a48.662 48.662 0 01-.168-3.746V8.125c0-1.759.153-3.57.168-3.74.07-.54.315-1.53.683-1.93.61-.67 1.253-.745 1.679-.794l.113-.013c3.083-.221 7.681-.254 7.847-.255.165 0 4.761.034 7.817.255l.123.014c.437.05 1.098.125 1.705.773l.006.006c.377.393.61 1.395.67 1.938.01.118.168 1.957.168 3.746v1.778z"/></svg></svg>