<svg width="133" height="12" viewBox="0 0 133 12" fill="none" xmlns="http://www.w3.org/2000/svg">
<path d="M11.955 0.499999L7.74 9.005L3.525 0.499999H0.495L5.895 11H9.585L14.985 0.499999H11.955ZM14.7333 7.385C14.7333 10.415 17.2983 11.15 21.6033 11.15C25.4883 11.15 28.1433 10.58 28.1433 7.775C28.1433 5.12 25.5783 4.895 21.4383 4.67C18.3783 4.49 17.7483 4.34 17.7483 3.53C17.7483 2.75 18.3783 2.495 21.0333 2.495C23.8383 2.495 24.9933 2.78 24.9933 3.935H27.6933C27.6933 1.34 25.2933 0.349999 21.3333 0.349999C17.4033 0.349999 15.0483 1.085 15.0483 3.395C15.0483 5.75 16.8633 6.47 21.4383 6.68C24.8433 6.845 25.4433 6.995 25.4433 7.865C25.4433 8.69 24.5883 9.005 21.7533 9.005C18.3333 9.005 17.4333 8.495 17.4333 7.385H14.7333ZM41.3916 4.355C41.3916 2.015 39.7566 0.499999 37.3716 0.499999H29.1216V11H31.8216V8.195H36.1716L37.8666 11H41.0466L39.1116 7.88C40.5216 7.325 41.3916 6.065 41.3916 4.355ZM31.8216 2.765H36.6216C37.4316 2.765 38.6916 2.765 38.6916 4.355C38.6916 5.93 37.4316 5.93 36.6216 5.93H31.8216V2.765ZM53.1182 11H56.1032L50.6732 0.499999H47.0282L41.6132 11H44.5832L45.7082 8.765H51.9932L53.1182 11ZM46.7132 6.755L48.8582 2.495L50.9882 6.755H46.7132ZM64.9985 0.499999H56.7485V11H59.4485V8.195H64.9985C67.3835 8.195 69.0185 6.695 69.0185 4.355C69.0185 2.015 67.3835 0.499999 64.9985 0.499999ZM64.2485 5.93H59.4485V2.765H64.2485C65.0585 2.765 66.3185 2.765 66.3185 4.355C66.3185 5.93 65.0585 5.93 64.2485 5.93ZM76.8573 7.385C76.8573 10.415 79.4223 11.15 83.7273 11.15C87.6123 11.15 90.2673 10.58 90.2673 7.775C90.2673 5.12 87.7023 4.895 83.5623 4.67C80.5023 4.49 79.8723 4.34 79.8723 3.53C79.8723 2.75 80.5023 2.495 83.1573 2.495C85.9623 2.495 87.1173 2.78 87.1173 3.935H89.8173C89.8173 1.34 87.4173 0.349999 83.4573 0.349999C79.5273 0.349999 77.1723 1.085 77.1723 3.395C77.1723 5.75 78.9873 6.47 83.5623 6.68C86.9673 6.845 87.5673 6.995 87.5673 7.865C87.5673 8.69 86.7123 9.005 83.8773 9.005C80.4573 9.005 79.5573 8.495 79.5573 7.385H76.8573ZM102.496 0.499999V4.61H93.9456V0.499999H91.2456V11H93.9456V6.89H102.496V11H105.196V0.499999H102.496ZM112.696 11.15C117.301 11.15 119.296 9.215 119.296 5.735C119.296 2.27 117.301 0.349999 112.696 0.349999C108.076 0.349999 106.096 2.255 106.096 5.735C106.096 9.23 108.076 11.15 112.696 11.15ZM112.696 8.885C109.891 8.885 108.796 7.895 108.796 5.735C108.796 3.59 109.876 2.615 112.696 2.615C115.516 2.615 116.596 3.605 116.596 5.735C116.596 7.88 115.501 8.885 112.696 8.885ZM128.529 0.499999H120.279V11H122.979V8.195H128.529C130.914 8.195 132.549 6.695 132.549 4.355C132.549 2.015 130.914 0.499999 128.529 0.499999ZM127.779 5.93H122.979V2.765H127.779C128.589 2.765 129.849 2.765 129.849 4.355C129.849 5.93 128.589 5.93 127.779 5.93Z" fill="white"/>
</svg>
